<svg width="185" height="244" viewBox="0 0 185 244" fill="none" xmlns="http://www.w3.org/2000/svg">
<path d="M140.422 122C140.422 142.113 138.988 157.012 136.463 168.048C133.938 179.084 130.371 186.042 126.263 190.505C118.154 199.314 106.988 199.5 92.4223 199.5C77.8561 199.5 66.6904 199.314 58.5815 190.505C54.4734 186.042 50.9062 179.084 48.3813 168.048C45.8564 157.012 44.4223 142.113 44.4223 122C44.4223 101.887 45.8564 86.9881 48.3812 75.9525C50.9062 64.9163 54.4734 57.9584 58.5814 53.4953C66.6904 44.6857 77.8561 44.5 92.4223 44.5C106.988 44.5 118.154 44.6857 126.263 53.4953C130.371 57.9584 133.938 64.9162 136.463 75.9524C138.988 86.9881 140.422 101.887 140.422 122Z" stroke="black" stroke-width="7"/>
<path d="M89.5251 171.475C90.892 172.842 93.108 172.842 94.4749 171.475L116.749 149.201C118.116 147.834 118.116 145.618 116.749 144.251C115.382 142.884 113.166 142.884 111.799 144.251L92 164.05L72.201 144.251C70.8342 142.884 68.6181 142.884 67.2513 144.251C65.8844 145.618 65.8844 147.834 67.2513 149.201L89.5251 171.475ZM88.5 76V169H95.5V76H88.5Z" fill="black"/>
</svg>
