<svg width="512" height="32" viewBox="0 0 512 32" fill="none" xmlns="http://www.w3.org/2000/svg">
<path d="M2.16 30.176C1.79733 30.176 1.488 29.9733 1.232 29.568C0.976 29.184 0.848 28.736 0.848 28.224C0.848 28.0107 0.890667 27.8187 0.976 27.648C1.08267 27.4773 1.24267 27.3493 1.456 27.264C1.69067 27.1573 1.92533 27.0613 2.16 26.976C2.416 26.8693 2.672 26.7627 2.928 26.656C2.864 26.4853 2.81067 26.2827 2.768 26.048C2.72533 25.8133 2.704 25.536 2.704 25.216C2.704 24.9813 2.74667 24.5333 2.832 23.872C2.93867 23.1893 3.07733 22.3787 3.248 21.44C3.41867 20.5013 3.6 19.5093 3.792 18.464C4.00533 17.3973 4.208 16.3627 4.4 15.36C4.61333 14.336 4.80533 13.4187 4.976 12.608C5.36 10.8587 5.82933 9.29067 6.384 7.904C6.96 6.51733 7.728 5.42933 8.688 4.64C9.66933 3.82933 10.96 3.424 12.56 3.424C13.776 3.424 14.9707 3.69067 16.144 4.224C17.3387 4.75733 18.416 5.51466 19.376 6.496C20.3573 7.456 21.136 8.58667 21.712 9.888C22.288 11.1893 22.576 12.608 22.576 14.144C22.576 15.4667 22.2667 16.7253 21.648 17.92C21.0293 19.0933 20.1973 20.2027 19.152 21.248C18.1067 22.2933 16.912 23.264 15.568 24.16C14.2453 25.056 12.8587 25.8773 11.408 26.624C9.97867 27.3493 8.57067 27.9893 7.184 28.544C5.79733 29.12 4.51733 29.6 3.344 29.984C3.19467 30.0267 3.01333 30.0693 2.8 30.112C2.58667 30.1547 2.37333 30.176 2.16 30.176ZM5.2 25.76C7.056 24.992 8.85867 24.2027 10.608 23.392C12.3787 22.5813 13.968 21.6853 15.376 20.704C16.784 19.7013 17.904 18.5813 18.736 17.344C19.568 16.1067 19.984 14.688 19.984 13.088C19.984 12.256 19.792 11.4453 19.408 10.656C19.024 9.86666 18.4907 9.16267 17.808 8.544C17.1467 7.904 16.3893 7.40267 15.536 7.04C14.704 6.656 13.8293 6.464 12.912 6.464C12.08 6.464 11.3333 6.67733 10.672 7.104C10.032 7.50933 9.47733 8.23467 9.008 9.28C8.53867 10.3253 8.13333 11.776 7.792 13.632C7.536 14.784 7.26933 16.032 6.992 17.376C6.71467 18.6987 6.43733 19.968 6.16 21.184C5.904 22.3787 5.69067 23.392 5.52 24.224C5.34933 25.0347 5.25333 25.504 5.232 25.632C5.232 25.6747 5.22133 25.7173 5.2 25.76ZM36.5895 28.064C36.0562 28.064 35.4908 27.904 34.8935 27.584C34.2962 27.264 33.7415 26.7413 33.2295 26.016C32.7388 25.2907 32.3335 24.3307 32.0135 23.136C31.6935 21.9413 31.5335 20.4693 31.5335 18.72C31.5335 17.3333 31.7042 15.9253 32.0455 14.496C32.4082 13.0453 32.9628 11.68 33.7095 10.4C34.4775 9.09867 35.4588 7.97867 36.6535 7.04C37.8695 6.08 39.3415 5.41867 41.0695 5.056C41.8162 4.88533 42.6588 4.72533 43.5975 4.576C44.5575 4.40533 45.5282 4.256 46.5095 4.128C47.5122 3.97867 48.4508 3.86133 49.3255 3.776C50.2215 3.69067 50.9788 3.648 51.5975 3.648C52.6002 3.648 53.3148 3.82933 53.7415 4.192C54.1895 4.53333 54.4135 4.864 54.4135 5.184C54.4135 5.39733 54.3282 5.6 54.1575 5.792C53.9868 5.96267 53.6562 6.06933 53.1655 6.112C52.9735 6.13333 52.5682 6.18667 51.9495 6.272C51.3308 6.336 50.5842 6.432 49.7095 6.56C48.8348 6.688 47.9175 6.82667 46.9575 6.976C46.0188 7.104 45.1015 7.24267 44.2055 7.392C43.3308 7.52 42.5735 7.63733 41.9335 7.744C40.1628 8.08533 38.7655 8.672 37.7415 9.504C36.7175 10.336 35.9708 11.3173 35.5015 12.448C35.0322 13.5787 34.7335 14.7413 34.6055 15.936C35.4588 15.744 36.3868 15.5413 37.3895 15.328C38.4135 15.1147 39.3948 14.9227 40.3335 14.752C41.2722 14.56 42.0828 14.4107 42.7655 14.304C43.4695 14.1973 43.9388 14.144 44.1735 14.144C44.6215 14.144 44.8988 14.24 45.0055 14.432C45.1335 14.624 45.1975 14.8693 45.1975 15.168C45.1975 15.744 44.2588 16.384 42.3815 17.088C40.5255 17.792 37.8908 18.3893 34.4775 18.88C34.4775 19.6053 34.4882 20.352 34.5095 21.12C34.5522 21.8667 34.6162 22.56 34.7015 23.2C34.7868 23.84 34.8935 24.352 35.0215 24.736C35.1495 25.12 35.3202 25.312 35.5335 25.312C36.0242 25.312 36.6642 25.1627 37.4535 24.864C38.2642 24.5653 39.1068 24.2027 39.9815 23.776C40.8562 23.3493 41.6562 22.9333 42.3815 22.528C43.1282 22.1227 43.6722 21.8027 44.0135 21.568C44.4188 21.312 44.8562 21.0347 45.3255 20.736C45.7948 20.4373 46.1468 20.288 46.3815 20.288C46.6802 20.288 46.8295 20.4587 46.8295 20.8C46.8295 20.992 46.6588 21.3653 46.3175 21.92C45.9975 22.4747 45.5282 23.104 44.9095 23.808C44.2908 24.4907 43.5548 25.1627 42.7015 25.824C41.8695 26.464 40.9308 26.9973 39.8855 27.424C38.8615 27.8507 37.7628 28.064 36.5895 28.064ZM64.6873 30.592C63.8766 30.592 63.1193 29.7813 62.4153 28.16C61.7326 26.56 61.1779 24.2027 60.7513 21.088C60.3459 17.952 60.1433 14.1333 60.1433 9.632C60.1433 7.73333 60.2499 6.28267 60.4633 5.28C60.6979 4.27733 61.0179 3.59467 61.4233 3.232C61.8499 2.86933 62.3513 2.688 62.9273 2.688C63.5459 2.688 63.9513 2.848 64.1433 3.168C64.3566 3.488 64.4633 3.89333 64.4633 4.384C64.4633 4.72533 64.3993 5.09867 64.2713 5.504C64.1433 5.888 63.8659 6.368 63.4392 6.944C63.3966 7.712 63.3539 8.42667 63.3113 9.088C63.2899 9.74933 63.2793 10.4213 63.2793 11.104C63.2793 12.6827 63.3219 14.2827 63.4073 15.904C63.4926 17.5253 63.5993 19.0827 63.7273 20.576C63.8553 22.0693 64.0046 23.4133 64.1753 24.608C64.3673 25.8027 64.5593 26.7627 64.7513 27.488C65.1353 26.464 65.6046 25.2267 66.1593 23.776C66.7139 22.3253 67.3113 20.7787 67.9513 19.136C68.5913 17.472 69.2313 15.8187 69.8713 14.176C70.5326 12.5333 71.1513 10.9973 71.7273 9.568C72.3033 8.11733 72.7939 6.89067 73.1993 5.888C73.6259 4.864 73.9246 4.17067 74.0953 3.808C74.3086 3.33867 74.5646 2.86933 74.8633 2.4C75.1833 1.90933 75.5246 1.504 75.8873 1.184C76.2499 0.842665 76.6233 0.671999 77.0073 0.671999C77.7326 0.671999 78.0953 1.184 78.0953 2.208C78.0953 2.336 77.9246 2.848 77.5833 3.744C77.2633 4.61867 76.8153 5.77067 76.2393 7.2C75.6846 8.608 75.0553 10.1653 74.3513 11.872C73.6473 13.5573 72.9113 15.2853 72.1433 17.056C71.3966 18.784 70.6499 20.4587 69.9033 22.08C69.1566 23.68 68.4526 25.12 67.7913 26.4C67.1299 27.68 66.5326 28.6933 65.9993 29.44C65.4659 30.208 65.0286 30.592 64.6873 30.592ZM90.1833 28.064C89.6499 28.064 89.0846 27.904 88.4873 27.584C87.8899 27.264 87.3353 26.7413 86.8233 26.016C86.3326 25.2907 85.9273 24.3307 85.6073 23.136C85.2873 21.9413 85.1273 20.4693 85.1273 18.72C85.1273 17.3333 85.2979 15.9253 85.6393 14.496C86.0019 13.0453 86.5566 11.68 87.3033 10.4C88.0713 9.09867 89.0526 7.97867 90.2473 7.04C91.4633 6.08 92.9353 5.41867 94.6633 5.056C95.4099 4.88533 96.2526 4.72533 97.1912 4.576C98.1513 4.40533 99.1219 4.256 100.103 4.128C101.106 3.97867 102.045 3.86133 102.919 3.776C103.815 3.69067 104.573 3.648 105.191 3.648C106.194 3.648 106.909 3.82933 107.335 4.192C107.783 4.53333 108.007 4.864 108.007 5.184C108.007 5.39733 107.922 5.6 107.751 5.792C107.581 5.96267 107.25 6.06933 106.759 6.112C106.567 6.13333 106.162 6.18667 105.543 6.272C104.925 6.336 104.178 6.432 103.303 6.56C102.429 6.688 101.511 6.82667 100.551 6.976C99.6126 7.104 98.6953 7.24267 97.7993 7.392C96.9246 7.52 96.1673 7.63733 95.5273 7.744C93.7566 8.08533 92.3593 8.672 91.3353 9.504C90.3113 10.336 89.5646 11.3173 89.0953 12.448C88.6259 13.5787 88.3273 14.7413 88.1993 15.936C89.0526 15.744 89.9806 15.5413 90.9833 15.328C92.0073 15.1147 92.9886 14.9227 93.9273 14.752C94.8659 14.56 95.6766 14.4107 96.3593 14.304C97.0633 14.1973 97.5326 14.144 97.7673 14.144C98.2153 14.144 98.4926 14.24 98.5993 14.432C98.7273 14.624 98.7913 14.8693 98.7913 15.168C98.7913 15.744 97.8526 16.384 95.9753 17.088C94.1193 17.792 91.4846 18.3893 88.0713 18.88C88.0713 19.6053 88.0819 20.352 88.1033 21.12C88.1459 21.8667 88.2099 22.56 88.2953 23.2C88.3806 23.84 88.4873 24.352 88.6153 24.736C88.7433 25.12 88.9139 25.312 89.1273 25.312C89.6179 25.312 90.2579 25.1627 91.0473 24.864C91.8579 24.5653 92.7006 24.2027 93.5753 23.776C94.4499 23.3493 95.2499 22.9333 95.9753 22.528C96.7219 22.1227 97.2659 21.8027 97.6073 21.568C98.0126 21.312 98.4499 21.0347 98.9193 20.736C99.3886 20.4373 99.7406 20.288 99.9753 20.288C100.274 20.288 100.423 20.4587 100.423 20.8C100.423 20.992 100.253 21.3653 99.9113 21.92C99.5913 22.4747 99.1219 23.104 98.5033 23.808C97.8846 24.4907 97.1486 25.1627 96.2953 25.824C95.4633 26.464 94.5246 26.9973 93.4793 27.424C92.4553 27.8507 91.3566 28.064 90.1833 28.064ZM117.666 29.536C116.983 29.536 116.268 29.3653 115.522 29.024C114.796 28.704 114.178 28.1707 113.666 27.424C113.175 26.656 112.93 25.6427 112.93 24.384C112.93 22.912 113.058 21.3547 113.314 19.712C113.57 18.0693 113.9 16.4267 114.306 14.784C114.732 13.12 115.202 11.5413 115.714 10.048C116.226 8.55467 116.738 7.22133 117.25 6.048C117.783 4.87466 118.274 3.95733 118.722 3.296C119.17 2.61333 119.543 2.272 119.842 2.272C120.247 2.272 120.588 2.432 120.866 2.752C121.164 3.072 121.314 3.52 121.314 4.096C121.314 4.33066 121.175 4.88533 120.898 5.76C120.62 6.61333 120.268 7.69067 119.842 8.992C119.415 10.2933 118.956 11.7013 118.466 13.216C117.996 14.7307 117.548 16.256 117.122 17.792C116.695 19.328 116.343 20.7787 116.066 22.144C115.788 23.5093 115.65 24.672 115.65 25.632C115.65 25.9093 115.724 26.176 115.874 26.432C116.023 26.6667 116.268 26.784 116.61 26.784C117.079 26.784 117.751 26.6773 118.626 26.464C119.522 26.2507 120.492 25.9947 121.538 25.696C122.583 25.376 123.586 25.0667 124.546 24.768C125.506 24.4693 126.316 24.2133 126.978 24C127.639 23.7867 128.012 23.68 128.098 23.68C128.354 23.68 128.567 23.7547 128.738 23.904C128.908 24.032 128.994 24.2347 128.994 24.512C128.994 24.8533 128.738 25.248 128.226 25.696C127.735 26.144 127.074 26.592 126.242 27.04C125.431 27.488 124.524 27.8933 123.522 28.256C122.519 28.64 121.506 28.9493 120.482 29.184C119.479 29.4187 118.54 29.536 117.666 29.536ZM142.611 28.576C141.075 28.576 139.72 28.1493 138.547 27.296C137.395 26.4427 136.488 25.2693 135.827 23.776C135.187 22.2827 134.867 20.576 134.867 18.656C134.867 17.6533 135.016 16.672 135.315 15.712C135.635 14.7307 136.029 13.8133 136.499 12.96C136.968 12.0853 137.448 11.3067 137.939 10.624C137.768 10.368 137.683 9.97333 137.683 9.44C137.683 8.90667 137.907 8.30933 138.355 7.648C138.803 6.98667 139.421 6.34667 140.211 5.728C141 5.10933 141.917 4.59733 142.963 4.192C144.008 3.78667 145.117 3.584 146.291 3.584C148.232 3.584 149.875 4 151.219 4.832C152.563 5.664 153.576 6.76266 154.259 8.128C154.963 9.472 155.315 10.944 155.315 12.544C155.315 14.848 154.952 16.9707 154.227 18.912C153.501 20.8533 152.52 22.5493 151.283 24C150.067 25.4507 148.701 26.5813 147.187 27.392C145.693 28.1813 144.168 28.576 142.611 28.576ZM142.131 8C142.216 8.10667 142.259 8.21333 142.259 8.32C142.259 8.46933 142.205 8.61867 142.099 8.768C142.013 8.91733 141.907 9.088 141.779 9.28C141.373 9.792 140.936 10.464 140.467 11.296C140.019 12.128 139.592 13.0453 139.187 14.048C138.803 15.0507 138.483 16.0853 138.227 17.152C137.971 18.1973 137.843 19.2 137.843 20.16C137.843 21.8027 138.216 23.136 138.963 24.16C139.709 25.1627 140.819 25.664 142.291 25.664C143.4 25.664 144.456 25.3973 145.459 24.864C146.483 24.3307 147.411 23.616 148.243 22.72C149.096 21.8027 149.832 20.7893 150.451 19.68C151.069 18.5493 151.549 17.3867 151.891 16.192C152.232 14.9973 152.403 13.856 152.403 12.768C152.403 11.6373 152.179 10.5813 151.731 9.6C151.283 8.61867 150.632 7.82933 149.779 7.232C148.925 6.63467 147.891 6.336 146.675 6.336C145.651 6.336 144.765 6.50667 144.019 6.848C143.293 7.168 142.664 7.552 142.131 8ZM177.557 17.824C176.319 17.824 175.071 17.664 173.813 17.344C172.554 17.0027 171.413 16.576 170.389 16.064C170.047 17.28 169.727 18.6133 169.429 20.064C169.13 21.5147 168.853 23.072 168.597 24.736C168.362 25.9307 168.127 26.7093 167.893 27.072C167.658 27.4347 167.359 27.616 166.997 27.616C166.634 27.616 166.346 27.4453 166.133 27.104C165.919 26.7413 165.813 26.0693 165.813 25.088C165.813 24.896 165.866 24.448 165.973 23.744C166.079 23.04 166.218 22.176 166.389 21.152C166.581 20.1067 166.783 18.9867 166.997 17.792C167.21 16.576 167.423 15.36 167.637 14.144C167.125 13.5893 166.869 13.0667 166.869 12.576C166.869 12.3413 166.933 12.1173 167.061 11.904C167.189 11.6693 167.455 11.552 167.861 11.552C167.925 11.552 167.999 11.5627 168.085 11.584C168.319 10.304 168.511 9.16267 168.661 8.16C168.831 7.136 168.927 6.4 168.949 5.952C168.991 5.184 169.141 4.65067 169.397 4.352C169.653 4.032 169.951 3.872 170.293 3.872C170.57 3.872 170.794 3.98933 170.965 4.224C171.135 4.43733 171.221 4.98133 171.221 5.856C171.221 6.41067 171.178 7.15733 171.093 8.096C172.138 5.96266 173.226 4.448 174.357 3.552C175.509 2.656 176.789 2.208 178.197 2.208C179.477 2.208 180.575 2.56 181.493 3.264C182.41 3.94666 183.114 4.91733 183.605 6.176C184.095 7.43467 184.341 8.91733 184.341 10.624C184.341 13.0347 183.754 14.8373 182.581 16.032C181.407 17.2267 179.733 17.824 177.557 17.824ZM171.221 13.408C172.031 13.8773 172.938 14.3147 173.941 14.72C174.943 15.104 175.978 15.296 177.045 15.296C178.773 15.296 180.031 14.912 180.821 14.144C181.631 13.3547 182.037 12.0853 182.037 10.336C182.037 8.30933 181.717 6.86933 181.077 6.016C180.437 5.16267 179.562 4.736 178.453 4.736C177.194 4.736 175.935 5.44 174.677 6.848C173.418 8.23467 172.266 10.4213 171.221 13.408ZM206.56 28.672C206.219 28.672 205.942 28.5547 205.728 28.32C205.515 28.0853 205.408 27.6693 205.408 27.072C205.408 26.624 205.547 25.8987 205.824 24.896C206.123 23.872 206.518 22.6773 207.008 21.312C207.52 19.9467 208.086 18.5067 208.704 16.992C209.344 15.456 210.006 13.9307 210.688 12.416C211.371 10.9013 212.043 9.504 212.704 8.224C213.366 6.92267 213.974 5.824 214.528 4.928C215.083 4.032 215.552 3.44533 215.936 3.168C216.384 2.848 216.8 2.688 217.184 2.688C217.398 2.688 217.611 2.70933 217.824 2.752C218.038 2.79467 218.219 2.86933 218.368 2.976C218.752 3.21067 219.083 3.73333 219.36 4.544C219.659 5.33333 219.915 6.304 220.128 7.456C220.342 8.58667 220.512 9.80267 220.64 11.104C220.79 12.384 220.918 13.6533 221.024 14.912C221.664 14.8267 222.198 14.7627 222.624 14.72C223.051 14.6773 223.36 14.656 223.552 14.656C224.278 14.656 224.736 14.752 224.928 14.944C225.12 15.136 225.227 15.36 225.248 15.616C225.291 16 225.184 16.3413 224.928 16.64C224.672 16.9387 224.31 17.1627 223.84 17.312C223.691 17.3547 223.371 17.4293 222.88 17.536C222.411 17.6213 221.846 17.728 221.184 17.856C221.206 18.496 221.216 19.0933 221.216 19.648C221.238 20.1813 221.248 20.64 221.248 21.024C221.248 22.9653 221.131 24.4267 220.896 25.408C220.662 26.368 220.374 27.0187 220.032 27.36C219.691 27.7013 219.36 27.872 219.04 27.872C218.656 27.872 218.39 27.7653 218.24 27.552C218.091 27.3173 218.016 26.9867 218.016 26.56V24.288C218.016 23.4987 218.006 22.6027 217.984 21.6C217.984 20.576 217.974 19.4987 217.952 18.368C216.694 18.5813 215.414 18.784 214.112 18.976C212.832 19.168 211.723 19.3387 210.784 19.488C210.315 20.704 209.91 21.8027 209.568 22.784C209.227 23.744 208.992 24.48 208.864 24.992C208.544 26.0587 208.256 26.8587 208 27.392C207.744 27.904 207.499 28.2453 207.264 28.416C207.051 28.5867 206.816 28.672 206.56 28.672ZM211.872 16.64C212.982 16.384 214.038 16.1493 215.04 15.936C216.064 15.7227 217.003 15.5413 217.856 15.392C217.792 13.472 217.675 11.6373 217.504 9.888C217.355 8.11733 217.131 6.72 216.832 5.696C216.427 6.4 215.947 7.33867 215.392 8.512C214.838 9.68533 214.251 10.9867 213.632 12.416C213.035 13.824 212.448 15.232 211.872 16.64ZM239.634 29.536C238.952 29.536 238.237 29.3653 237.49 29.024C236.765 28.704 236.146 28.1707 235.634 27.424C235.144 26.656 234.898 25.6427 234.898 24.384C234.898 22.912 235.026 21.3547 235.282 19.712C235.538 18.0693 235.869 16.4267 236.274 14.784C236.701 13.12 237.17 11.5413 237.682 10.048C238.194 8.55467 238.706 7.22133 239.218 6.048C239.752 4.87466 240.242 3.95733 240.69 3.296C241.138 2.61333 241.512 2.272 241.81 2.272C242.216 2.272 242.557 2.432 242.834 2.752C243.133 3.072 243.282 3.52 243.282 4.096C243.282 4.33066 243.144 4.88533 242.866 5.76C242.589 6.61333 242.237 7.69067 241.81 8.992C241.384 10.2933 240.925 11.7013 240.434 13.216C239.965 14.7307 239.517 16.256 239.09 17.792C238.664 19.328 238.312 20.7787 238.034 22.144C237.757 23.5093 237.618 24.672 237.618 25.632C237.618 25.9093 237.693 26.176 237.842 26.432C237.992 26.6667 238.237 26.784 238.578 26.784C239.048 26.784 239.72 26.6773 240.594 26.464C241.49 26.2507 242.461 25.9947 243.506 25.696C244.552 25.376 245.554 25.0667 246.514 24.768C247.474 24.4693 248.285 24.2133 248.946 24C249.608 23.7867 249.981 23.68 250.066 23.68C250.322 23.68 250.536 23.7547 250.706 23.904C250.877 24.032 250.962 24.2347 250.962 24.512C250.962 24.8533 250.706 25.248 250.194 25.696C249.704 26.144 249.042 26.592 248.21 27.04C247.4 27.488 246.493 27.8933 245.49 28.256C244.488 28.64 243.474 28.9493 242.45 29.184C241.448 29.4187 240.509 29.536 239.634 29.536ZM262.603 29.536C261.92 29.536 261.206 29.3653 260.459 29.024C259.734 28.704 259.115 28.1707 258.603 27.424C258.112 26.656 257.867 25.6427 257.867 24.384C257.867 22.912 257.995 21.3547 258.251 19.712C258.507 18.0693 258.838 16.4267 259.243 14.784C259.67 13.12 260.139 11.5413 260.651 10.048C261.163 8.55467 261.675 7.22133 262.187 6.048C262.72 4.87466 263.211 3.95733 263.659 3.296C264.107 2.61333 264.48 2.272 264.779 2.272C265.184 2.272 265.526 2.432 265.803 2.752C266.102 3.072 266.251 3.52 266.251 4.096C266.251 4.33066 266.112 4.88533 265.835 5.76C265.558 6.61333 265.206 7.69067 264.779 8.992C264.352 10.2933 263.894 11.7013 263.403 13.216C262.934 14.7307 262.486 16.256 262.059 17.792C261.632 19.328 261.28 20.7787 261.003 22.144C260.726 23.5093 260.587 24.672 260.587 25.632C260.587 25.9093 260.662 26.176 260.811 26.432C260.96 26.6667 261.206 26.784 261.547 26.784C262.016 26.784 262.688 26.6773 263.563 26.464C264.459 26.2507 265.43 25.9947 266.475 25.696C267.52 25.376 268.523 25.0667 269.483 24.768C270.443 24.4693 271.254 24.2133 271.915 24C272.576 23.7867 272.95 23.68 273.035 23.68C273.291 23.68 273.504 23.7547 273.675 23.904C273.846 24.032 273.931 24.2347 273.931 24.512C273.931 24.8533 273.675 25.248 273.163 25.696C272.672 26.144 272.011 26.592 271.179 27.04C270.368 27.488 269.462 27.8933 268.459 28.256C267.456 28.64 266.443 28.9493 265.419 29.184C264.416 29.4187 263.478 29.536 262.603 29.536ZM306.52 31.296C306.05 31.296 305.634 31.0613 305.272 30.592C304.93 30.1227 304.76 29.3867 304.76 28.384C304.76 27.808 305.208 26.144 306.104 23.392C307.021 20.6187 308.408 16.8213 310.264 12C309.453 13.1947 308.589 14.3467 307.672 15.456C306.754 16.544 305.816 17.44 304.856 18.144C303.917 18.848 303 19.2 302.104 19.2C300.674 19.2 299.565 18.7627 298.776 17.888C298.008 16.992 297.624 15.616 297.624 13.76C297.624 11.584 297.773 9.664 298.072 8C298.392 6.336 298.744 5.03467 299.128 4.096C299.533 3.15733 299.853 2.688 300.088 2.688C300.408 2.688 300.77 2.848 301.176 3.168C301.602 3.46667 301.816 3.92533 301.816 4.544C301.816 5.14133 301.677 5.99467 301.4 7.104C301.144 8.192 300.877 9.44 300.6 10.848C300.322 12.256 300.184 13.7173 300.184 15.232C300.184 15.68 300.28 16.0213 300.472 16.256C300.664 16.4693 300.909 16.576 301.208 16.576C301.997 16.576 302.829 16.2987 303.704 15.744C304.578 15.1893 305.442 14.464 306.296 13.568C307.149 12.6507 307.97 11.648 308.76 10.56C309.549 9.472 310.264 8.39467 310.904 7.328C311.565 6.24 312.12 5.248 312.568 4.352C313.144 3.17867 313.581 2.41067 313.88 2.048C314.2 1.664 314.53 1.472 314.872 1.472C315.256 1.472 315.608 1.664 315.928 2.048C316.248 2.41067 316.408 2.74133 316.408 3.04C316.408 3.33867 316.184 3.968 315.736 4.928C315.288 5.888 314.712 7.232 314.008 8.96C313.304 10.6667 312.578 12.832 311.832 15.456C310.914 18.72 310.157 21.3867 309.56 23.456C308.984 25.5253 308.504 27.1253 308.12 28.256C307.757 29.408 307.448 30.1973 307.192 30.624C306.957 31.072 306.733 31.296 306.52 31.296ZM331.361 28.576C329.825 28.576 328.47 28.1493 327.297 27.296C326.145 26.4427 325.238 25.2693 324.577 23.776C323.937 22.2827 323.617 20.576 323.617 18.656C323.617 17.6533 323.766 16.672 324.065 15.712C324.385 14.7307 324.779 13.8133 325.249 12.96C325.718 12.0853 326.198 11.3067 326.689 10.624C326.518 10.368 326.433 9.97333 326.433 9.44C326.433 8.90667 326.657 8.30933 327.105 7.648C327.553 6.98667 328.171 6.34667 328.961 5.728C329.75 5.10933 330.667 4.59733 331.713 4.192C332.758 3.78667 333.867 3.584 335.041 3.584C336.982 3.584 338.625 4 339.969 4.832C341.313 5.664 342.326 6.76266 343.009 8.128C343.713 9.472 344.065 10.944 344.065 12.544C344.065 14.848 343.702 16.9707 342.977 18.912C342.251 20.8533 341.27 22.5493 340.033 24C338.817 25.4507 337.451 26.5813 335.937 27.392C334.443 28.1813 332.918 28.576 331.361 28.576ZM330.881 8C330.966 8.10667 331.009 8.21333 331.009 8.32C331.009 8.46933 330.955 8.61867 330.849 8.768C330.763 8.91733 330.657 9.088 330.529 9.28C330.123 9.792 329.686 10.464 329.217 11.296C328.769 12.128 328.342 13.0453 327.937 14.048C327.553 15.0507 327.233 16.0853 326.977 17.152C326.721 18.1973 326.593 19.2 326.593 20.16C326.593 21.8027 326.966 23.136 327.713 24.16C328.459 25.1627 329.569 25.664 331.041 25.664C332.15 25.664 333.206 25.3973 334.209 24.864C335.233 24.3307 336.161 23.616 336.993 22.72C337.846 21.8027 338.582 20.7893 339.201 19.68C339.819 18.5493 340.299 17.3867 340.641 16.192C340.982 14.9973 341.153 13.856 341.153 12.768C341.153 11.6373 340.929 10.5813 340.481 9.6C340.033 8.61867 339.382 7.82933 338.529 7.232C337.675 6.63467 336.641 6.336 335.425 6.336C334.401 6.336 333.515 6.50667 332.769 6.848C332.043 7.168 331.414 7.552 330.881 8ZM372.387 7.104C372.387 8.49067 372.301 9.96267 372.131 11.52C371.96 13.0773 371.683 14.6453 371.299 16.224C370.915 17.7813 370.413 19.264 369.795 20.672C369.197 22.0587 368.461 23.3067 367.587 24.416C366.712 25.504 365.688 26.368 364.515 27.008C363.363 27.648 362.04 27.968 360.547 27.968C358.499 27.968 356.877 27.3173 355.683 26.016C354.488 24.7147 353.891 22.7627 353.891 20.16C353.891 18.688 354.04 17.248 354.339 15.84C354.637 14.4107 354.989 13.1093 355.395 11.936C355.8 10.7627 356.152 9.792 356.451 9.024C356.365 8.85333 356.323 8.65067 356.323 8.416C356.323 7.776 356.472 7.17867 356.771 6.624C357.069 6.048 357.432 5.57867 357.859 5.216C358.307 4.85333 358.733 4.672 359.139 4.672C359.459 4.672 359.715 4.78933 359.907 5.024C360.12 5.25867 360.227 5.62133 360.227 6.112C360.227 6.64533 360.045 7.37067 359.683 8.288C359.341 9.20533 358.947 10.2933 358.499 11.552C358.051 12.7893 357.645 14.1867 357.283 15.744C356.941 17.28 356.771 18.9333 356.771 20.704C356.771 22.0693 357.133 23.1147 357.859 23.84C358.584 24.544 359.661 24.896 361.091 24.896C362.264 24.896 363.288 24.5227 364.163 23.776C365.037 23.0293 365.773 22.016 366.371 20.736C366.989 19.4347 367.491 17.9627 367.875 16.32C368.28 14.6773 368.589 12.96 368.803 11.168C369.037 9.376 369.208 7.616 369.315 5.888C369.357 5.33333 369.517 4.928 369.795 4.672C370.093 4.39467 370.456 4.256 370.883 4.256C371.203 4.256 371.469 4.32 371.683 4.448C371.917 4.55467 372.088 4.81067 372.195 5.216C372.323 5.62133 372.387 6.25067 372.387 7.104ZM411.833 28.96C411.299 28.96 410.809 28.8213 410.361 28.544C409.913 28.288 409.518 27.808 409.177 27.104C408.835 26.3787 408.569 25.3653 408.377 24.064C408.206 22.7413 408.121 21.024 408.121 18.912C408.121 18.592 408.121 18.272 408.121 17.952C408.121 17.6107 408.131 17.2693 408.153 16.928C407.577 18.2293 406.926 19.4773 406.201 20.672C405.497 21.8667 404.75 22.9227 403.961 23.84C403.193 24.7573 402.414 25.4827 401.625 26.016C400.857 26.5493 400.121 26.816 399.417 26.816C398.158 26.816 397.134 26.336 396.345 25.376C395.577 24.416 395.193 22.8373 395.193 20.64C395.193 19.3387 395.289 17.952 395.481 16.48C395.694 15.008 395.971 13.568 396.313 12.16C396.654 10.752 397.017 9.472 397.401 8.32C397.806 7.168 398.211 6.25067 398.617 5.568C399.022 4.88533 399.385 4.544 399.705 4.544C400.238 4.544 400.633 4.68267 400.889 4.96C401.166 5.216 401.305 5.55733 401.305 5.984C401.305 6.28267 401.187 6.848 400.953 7.68C400.718 8.512 400.43 9.51467 400.089 10.688C399.747 11.84 399.395 13.0773 399.033 14.4C398.691 15.7227 398.403 17.0347 398.169 18.336C397.934 19.616 397.817 20.7893 397.817 21.856C397.817 22.944 398.254 23.488 399.129 23.488C400.153 23.488 401.113 23.0507 402.009 22.176C402.905 21.28 403.737 20.096 404.505 18.624C405.273 17.152 405.977 15.5093 406.617 13.696C407.278 11.8613 407.875 9.99467 408.409 8.096C408.387 7.904 408.377 7.69067 408.377 7.456C408.377 7.22133 408.377 6.92267 408.377 6.56C408.377 6.09067 408.505 5.58933 408.761 5.056C409.038 4.50133 409.369 4.02133 409.753 3.616C410.137 3.21067 410.521 3.008 410.905 3.008C411.63 3.008 411.993 3.52 411.993 4.544C411.993 4.8 411.929 5.216 411.801 5.792C411.694 6.368 411.555 7.2 411.385 8.288C411.235 9.376 411.097 10.8053 410.969 12.576C410.862 14.3467 410.809 16.5653 410.809 19.232C410.809 21.4933 410.926 23.0827 411.161 24C411.417 24.896 411.79 25.344 412.281 25.344C412.921 25.344 413.539 24.9707 414.137 24.224C414.755 23.4773 415.331 22.432 415.865 21.088C416.419 19.744 416.91 18.176 417.337 16.384C417.785 14.5707 418.169 12.608 418.489 10.496C418.83 8.36267 419.097 6.15467 419.289 3.872C419.395 2.93333 419.598 2.26133 419.897 1.856C420.195 1.45067 420.505 1.248 420.825 1.248C421.017 1.248 421.23 1.30133 421.465 1.408C421.721 1.49333 421.934 1.68533 422.105 1.984C422.275 2.28267 422.361 2.752 422.361 3.392C422.361 6.69867 422.115 9.70667 421.625 12.416C421.155 15.104 420.526 17.4827 419.737 19.552C418.947 21.6 418.083 23.328 417.145 24.736C416.206 26.1227 415.267 27.1787 414.329 27.904C413.411 28.608 412.579 28.96 411.833 28.96ZM430.967 28.672C430.625 28.672 430.348 28.5547 430.135 28.32C429.921 28.0853 429.815 27.6693 429.815 27.072C429.815 26.624 429.953 25.8987 430.231 24.896C430.529 23.872 430.924 22.6773 431.415 21.312C431.927 19.9467 432.492 18.5067 433.111 16.992C433.751 15.456 434.412 13.9307 435.095 12.416C435.777 10.9013 436.449 9.504 437.111 8.224C437.772 6.92267 438.38 5.824 438.935 4.928C439.489 4.032 439.959 3.44533 440.343 3.168C440.791 2.848 441.207 2.688 441.591 2.688C441.804 2.688 442.017 2.70933 442.231 2.752C442.444 2.79467 442.625 2.86933 442.775 2.976C443.159 3.21067 443.489 3.73333 443.767 4.544C444.065 5.33333 444.321 6.304 444.535 7.456C444.748 8.58667 444.919 9.80267 445.047 11.104C445.196 12.384 445.324 13.6533 445.431 14.912C446.071 14.8267 446.604 14.7627 447.031 14.72C447.457 14.6773 447.767 14.656 447.959 14.656C448.684 14.656 449.143 14.752 449.335 14.944C449.527 15.136 449.633 15.36 449.655 15.616C449.697 16 449.591 16.3413 449.335 16.64C449.079 16.9387 448.716 17.1627 448.247 17.312C448.097 17.3547 447.777 17.4293 447.287 17.536C446.817 17.6213 446.252 17.728 445.591 17.856C445.612 18.496 445.623 19.0933 445.623 19.648C445.644 20.1813 445.655 20.64 445.655 21.024C445.655 22.9653 445.537 24.4267 445.303 25.408C445.068 26.368 444.78 27.0187 444.439 27.36C444.097 27.7013 443.767 27.872 443.447 27.872C443.063 27.872 442.796 27.7653 442.647 27.552C442.497 27.3173 442.423 26.9867 442.423 26.56V24.288C442.423 23.4987 442.412 22.6027 442.391 21.6C442.391 20.576 442.38 19.4987 442.359 18.368C441.1 18.5813 439.82 18.784 438.519 18.976C437.239 19.168 436.129 19.3387 435.191 19.488C434.721 20.704 434.316 21.8027 433.975 22.784C433.633 23.744 433.399 24.48 433.271 24.992C432.951 26.0587 432.663 26.8587 432.407 27.392C432.151 27.904 431.905 28.2453 431.671 28.416C431.457 28.5867 431.223 28.672 430.967 28.672ZM436.279 16.64C437.388 16.384 438.444 16.1493 439.447 15.936C440.471 15.7227 441.409 15.5413 442.263 15.392C442.199 13.472 442.081 11.6373 441.911 9.888C441.761 8.11733 441.537 6.72 441.239 5.696C440.833 6.4 440.353 7.33867 439.799 8.512C439.244 9.68533 438.657 10.9867 438.039 12.416C437.441 13.824 436.855 15.232 436.279 16.64ZM472.009 29.92C471.539 29.92 471.145 29.7387 470.825 29.376C470.526 29.0133 470.377 28.416 470.377 27.584C470.377 27.3067 470.409 27.008 470.472 26.688C470.537 26.3467 470.654 26.0053 470.825 25.664C469.758 23.0187 468.862 20.448 468.137 17.952C467.411 15.456 466.793 12.8427 466.281 10.112C465.598 11.52 464.947 12.9813 464.329 14.496C463.731 15.9893 463.166 17.4507 462.633 18.88C462.099 20.3093 461.619 21.6427 461.193 22.88C460.766 24.1173 460.393 25.184 460.073 26.08C459.731 27.1467 459.39 27.8613 459.049 28.224C458.707 28.608 458.355 28.8 457.993 28.8C457.502 28.8 457.129 28.6827 456.873 28.448C456.638 28.2133 456.521 27.7973 456.521 27.2C456.521 26.752 456.638 26.0587 456.873 25.12C457.107 24.1813 457.427 23.0933 457.833 21.856C458.259 20.6187 458.739 19.3173 459.273 17.952C459.806 16.5867 460.371 15.2533 460.969 13.952C461.587 12.6507 462.206 11.4773 462.825 10.432C463.443 9.36533 464.03 8.52267 464.585 7.904C465.161 7.264 465.683 6.944 466.153 6.944C466.643 6.944 467.059 7.04 467.401 7.232C467.763 7.424 468.158 7.92533 468.585 8.736C468.862 9.29067 469.182 10.1013 469.545 11.168C469.907 12.2133 470.27 13.3973 470.633 14.72C470.995 16.0213 471.347 17.3653 471.689 18.752C472.03 20.1173 472.329 21.3867 472.585 22.56C473.438 18.6133 474.185 15.1573 474.825 12.192C475.465 9.20533 475.955 6.86933 476.297 5.184C476.659 3.49866 476.851 2.61333 476.873 2.528C477.001 1.97333 477.139 1.632 477.289 1.504C477.438 1.376 477.651 1.312 477.929 1.312C478.313 1.312 478.686 1.472 479.049 1.792C479.433 2.09066 479.625 2.50666 479.625 3.04C479.625 3.296 479.561 3.88267 479.433 4.8C479.326 5.71733 479.155 6.86933 478.921 8.256C478.707 9.62133 478.43 11.1467 478.089 12.832C477.747 14.496 477.353 16.2347 476.905 18.048C476.457 19.84 475.955 21.6213 475.401 23.392C474.867 25.1413 474.281 26.7947 473.641 28.352C473.406 28.9493 473.129 29.3547 472.809 29.568C472.51 29.8027 472.243 29.92 472.009 29.92ZM488.503 7.488C487.629 7.488 487.01 7.44533 486.647 7.36C486.285 7.25333 486.061 7.11467 485.975 6.944C485.911 6.77333 485.879 6.60267 485.879 6.432C485.879 6.19733 485.997 5.984 486.231 5.792C486.487 5.57867 486.999 5.408 487.767 5.28C488.749 5.06667 489.901 4.85333 491.223 4.64C492.567 4.40533 493.997 4.192 495.511 4C497.026 3.78666 498.541 3.59467 500.055 3.424C501.591 3.25333 503.053 3.12533 504.439 3.04C505.847 2.93333 507.095 2.88 508.183 2.88C509.634 2.88 510.615 3.008 511.127 3.264C511.661 3.52 511.927 3.79733 511.927 4.096C511.927 4.37333 511.778 4.62933 511.479 4.864C511.202 5.09867 510.722 5.216 510.039 5.216C509.762 5.216 509.122 5.28 508.119 5.408C507.117 5.51467 505.89 5.664 504.439 5.856C503.01 6.02667 501.495 6.21867 499.895 6.432C499.789 7.15733 499.629 8.11733 499.415 9.312C499.202 10.4853 498.957 11.776 498.679 13.184C498.423 14.592 498.157 16.0107 497.879 17.44C497.623 18.848 497.378 20.16 497.143 21.376C496.93 22.592 496.749 23.5947 496.599 24.384C496.45 25.1733 496.365 25.6427 496.343 25.792C496.258 26.4533 496.066 26.9547 495.767 27.296C495.49 27.616 495.181 27.776 494.839 27.776C494.434 27.776 494.093 27.6053 493.815 27.264C493.559 26.9013 493.431 26.272 493.431 25.376C493.431 25.0773 493.495 24.5013 493.623 23.648C493.751 22.7733 493.922 21.7387 494.135 20.544C494.349 19.3493 494.583 18.08 494.839 16.736C495.095 15.392 495.351 14.08 495.607 12.8C495.863 11.4987 496.098 10.3253 496.311 9.28C496.525 8.21333 496.685 7.38133 496.791 6.784C495.106 6.976 493.517 7.14667 492.023 7.296C490.551 7.424 489.378 7.488 488.503 7.488Z" fill="black"/>
</svg>
